<svg id="Layer_1" data-name="Layer 1" xmlns="http://www.w3.org/2000/svg" viewBox="0 0 299.87 108.58"><title>unity-master-black</title><path d="M145.11,141.55l-19.48-32.8,19.48-32.81,9.41,32.81Zm-43.42-3.15-24.5-24.33h39l19.47,32.81Zm0-59.32,33.93-8.48-19.47,32.81h-39Zm49.85-24.63L107.19,66l-6.56,11.26-13.32-.1L54.84,108.75l32.46,31.57,13.31-.1,6.58,11.26L151.54,163l11.88-43.11-6.75-11.17,6.75-11.17Z" transform="translate(-54.84 -54.46)"/><path d="M252.14,86.45c-5.93,0-9.91,2.46-12.87,7.11H239V87.63H228.65v43.43h10.63V106.43c0-5.93,3.72-10,8.81-10,4.83,0,8.42,2.86,8.42,8v26.67h10.63V102.7c0-9.48-6-16.25-15-16.25" transform="translate(-54.84 -54.46)"/><path d="M212.48,112.67c0,5.76-3.3,9.82-8.72,9.82-4.91,0-8-2.79-8-7.87v-27H185.14v29c0,9.48,5.42,15.66,15.07,15.66,6.1,0,9.48-2.29,12.44-6.26h.25V131h10.22V87.61H212.48Z" transform="translate(-54.84 -54.46)"/><rect x="217.85" y="33.18" width="10.63" height="43.43"/><rect x="217.85" y="19.63" width="10.63" height="8.73"/><path d="M343.38,87.63l-6.31,19.56c-1.35,4-2.54,9.48-2.54,9.48h-.27s-1.44-5.5-2.79-9.48l-7.13-19.56H313l11.68,30.9c2.45,6.6,3.3,9.4,3.3,11.77,0,3.56-1.86,5.93-6.43,5.93h-4.06v9.06h6.77c8.8,0,11.86-3.47,15.16-13.12l15.31-44.53Z" transform="translate(-54.84 -54.46)"/><path d="M303.12,118.28v-23h6.77V87.63h-6.77V74.09H292.57V87.63h-6v7.62h6v25.48c0,8.21,6.18,10.41,11.77,10.41a55.37,55.37,0,0,0,5.81-.17v-8.4l-2.71,0c-2.54,0-4.32-1.1-4.32-4.32" transform="translate(-54.84 -54.46)"/></svg>